<svg width="110" height="110" xmlns="http://www.w3.org/2000/svg" xmlns:xlink="http://www.w3.org/1999/xlink" xml:space="preserve" overflow="hidden"><g><path d="M91.6667 74.431C91.6057 71.0671 90.0351 67.9088 87.3893 65.8304 83.1061 62.3265 78.0714 60.162 72.7868 58.2679L67.1722 55.9648C66.7422 55.7898 66.4603 55.3726 66.4583 54.9083L66.4583 52.1033C70.6453 48.7496 73.1491 43.7271 73.307 38.3648L76.3411 33.1604C76.7783 32.1279 76.9538 31.0034 76.8522 29.8868 76.1881 22.3777 71.6345 15.767 64.8553 12.4701 64.3089 12.2137 63.6667 12.271 63.1744 12.6202L62.0171 13.4223 60.7372 11.6726C60.3435 11.1205 59.7506 10.7429 59.0838 10.6196 57.8909 10.4137 56.6825 10.311 55.4721 10.3125 45.151 10.3123 36.2903 17.6561 34.375 27.7979L34.328 28.0477C33.7721 31.0233 32.6199 33.8557 30.9409 36.3745L36.6701 36.3745 36.6701 37.8125C36.6717 43.3691 39.1982 48.624 43.5371 52.0953L43.5371 54.9083C43.5373 55.3737 43.2561 55.793 42.8255 55.9694L37.1766 58.2874C31.9057 60.1734 26.8939 62.331 22.6543 65.7995 19.9765 67.8912 18.3882 71.0817 18.3333 74.4792L18.3333 94.6103 19.3531 95.2909C24.9746 99.039 40.1993 100.906 55.3174 100.906 70.557 100.906 85.6889 99.0057 90.7397 95.2165L91.6564 94.529ZM71.6203 71.0417C72.886 71.0417 73.912 72.0676 73.912 73.3333 73.912 74.599 72.886 75.625 71.6203 75.625 70.3546 75.625 69.3287 74.599 69.3287 73.3333 69.3287 72.0676 70.3546 71.0417 71.6203 71.0417ZM41.25 37.8125 41.25 36.3745 49.3396 36.3745C61.1188 36.3745 59.5169 26.9867 64.6708 25.6426 66.0492 25.3815 67.4745 25.5548 68.75 26.1388L68.75 37.8125C68.75 45.4064 62.5939 51.5625 55 51.5625 47.4061 51.5625 41.25 45.4064 41.25 37.8125ZM55 56.1458C57.3573 56.1451 59.6921 55.687 61.875 54.7972L61.875 54.9118C61.8732 56.6867 62.699 58.3611 64.1082 59.4401 61.1548 60.3281 58.0838 60.7627 55 60.7292 51.9145 60.7613 48.842 60.3251 45.8872 59.4355 47.2973 58.3571 48.1244 56.6835 48.125 54.9083L48.125 54.7938C50.3075 55.6854 52.6425 56.1446 55 56.1458ZM87.0833 92.1319C76.9106 97.6663 34.045 97.625 22.9167 92.062L22.9167 74.5307C22.9593 72.5098 23.9142 70.6167 25.5143 69.3814 29.056 66.6764 33.017 64.5695 37.2396 63.1446L37.2396 68.2023C32.7282 68.5038 29.222 72.2494 29.2188 76.7708 29.2202 77.257 29.4286 77.7195 29.7917 78.0427L29.7917 85.3646C29.7953 86.9599 30.8961 88.3431 32.45 88.7047 33.0286 89.4572 34.1078 89.598 34.8603 89.0193 35.6127 88.4407 35.7536 87.3615 35.1749 86.6091 34.5963 85.8567 33.5171 85.7158 32.7646 86.2944 32.739 86.3141 32.714 86.3347 32.6895 86.3557 32.3208 86.1617 32.088 85.7812 32.0833 85.3646L32.0833 78.0427C32.4469 77.7198 32.6553 77.2571 32.6562 76.7708 32.6562 73.9231 34.9648 71.6146 37.8125 71.6146L38.9583 71.6146C41.8061 71.6146 44.1146 73.9231 44.1146 76.7708 44.1161 77.257 44.3244 77.7195 44.6875 78.0427L44.6875 85.3646C44.6833 85.781 44.451 86.1616 44.0825 86.3557 43.3638 85.7355 42.2786 85.8154 41.6584 86.5339 41.0381 87.2526 41.118 88.3379 41.8366 88.958 42.5552 89.5783 43.6406 89.4985 44.2607 88.7799 44.2819 88.7553 44.3023 88.7304 44.322 88.7047 45.8754 88.3426 46.9756 86.9596 46.9792 85.3646L46.9792 78.0427C47.3427 77.7198 47.5512 77.2571 47.5521 76.7708 47.547 72.2507 44.0414 68.5071 39.5312 68.2057L39.5312 62.3139C39.8429 62.1993 40.1511 62.0927 40.464 61.985 43.8281 64.083 49.1299 65.3125 55 65.3125 60.8701 65.3125 66.1696 64.0842 69.5292 61.9896 69.8454 62.1042 70.1582 62.2107 70.4722 62.3219L70.4722 68.8405C70.4722 68.8669 70.4859 68.8875 70.4871 68.9127 68.0341 69.5377 66.5522 72.0327 67.1771 74.4857 67.8021 76.9386 70.2971 78.4206 72.7501 77.7957 75.2031 77.1707 76.685 74.6756 76.0601 72.2227 75.6459 70.5966 74.3762 69.3269 72.7501 68.9127 72.7501 68.8875 72.7639 68.8657 72.7639 68.8405L72.7639 63.1492C76.9975 64.5795 80.9681 66.6941 84.5178 69.4089 86.0907 70.6283 87.0326 72.4897 87.0833 74.4792Z"/><path d="M72.7662 73.3333C72.7662 73.9662 72.2531 74.4792 71.6203 74.4792 70.9875 74.4792 70.4745 73.9662 70.4745 73.3333 70.4745 72.7005 70.9875 72.1875 71.6203 72.1875 72.2531 72.1875 72.7662 72.7005 72.7662 73.3333Z"/></g></svg>