<svg width="110" height="110" xmlns="http://www.w3.org/2000/svg" xmlns:xlink="http://www.w3.org/1999/xlink" xml:space="preserve" overflow="hidden"><g><path d="M35.75 59.0104C31.3958 60.7292 27.3854 63.0208 23.7188 65.8854 21.1979 67.9479 19.5938 71.0417 19.4792 74.3646L17.5312 91.3229C17.1875 93.8438 18.3333 96.3646 20.3958 97.7396 22.4583 99.1146 24.6354 100.146 26.9271 101.062L27.9583 101.062 27.9583 96.5938C26.2396 95.9062 24.5208 94.9896 22.9167 93.9583 22.2292 93.5 21.8854 92.6979 22 91.8958L24.0625 74.7083 24.0625 74.4792C24.1771 72.4167 25.0938 70.5833 26.6979 69.3229 29.7917 66.6875 34.2604 64.2812 40.4479 61.9896 43.8854 64.0521 49.1563 65.3125 55 65.3125 60.8438 65.3125 66.1146 64.0521 69.5521 61.9896 75.8542 64.2812 80.2083 66.6875 83.3021 69.3229 84.9062 70.5833 85.8229 72.5312 85.9375 74.4792L88 91.7812C88.1146 92.5833 87.7708 93.3854 87.0833 93.8438L87.0833 93.8438C85.4792 94.875 83.875 95.7917 82.0417 96.4792L82.0417 100.948 83.0729 100.948C85.3646 100.146 87.5417 99 89.6042 97.625L89.6042 97.625C91.6667 96.1354 92.8125 93.7292 92.4688 91.2083L90.5208 74.3646C90.4063 71.0417 88.8021 67.9479 86.2813 65.8854 82.6146 63.0208 78.6042 60.6146 74.25 59.0104 74.25 53.1667 74.4792 37.125 74.4792 30.5938 74.4792 28.7604 74.25 26.9271 73.7917 25.0938 72.3021 19.5938 68.5208 15.0104 63.4792 12.375 63.0208 12.1458 62.3333 12.1458 61.9896 12.4896L60.9583 13.2917 59.8125 11.6875C59.4688 11.1146 58.8958 10.7708 58.3229 10.6563 57.1771 10.4271 56.1458 10.3125 55 10.3125 50.4167 10.3125 45.8333 12.0312 42.3958 15.0104 38.0417 18.9062 35.6354 24.4062 35.75 30.25L35.75 59.0104ZM41.4792 40.3333 42.2813 30.9375 67.6042 30.9375 68.4062 40.3333C67.0312 47.7813 59.9271 52.7083 52.3646 51.3333 46.8646 50.3021 42.5104 45.9479 41.4792 40.3333ZM46.0625 59.4688C47.3229 58.4375 48.125 56.7188 48.125 55L48.125 54.7708C52.4792 56.6042 57.5208 56.6042 61.875 54.7708L61.875 55C61.875 56.7188 62.6771 58.3229 63.9375 59.4688 61.0729 60.3854 57.9792 60.7292 55 60.7292 52.0208 60.7292 48.9271 60.3854 46.0625 59.4688Z"/><path d="M79.75 74.8229C79.75 73.2188 78.4896 71.9583 76.8854 71.9583L76.8854 71.9583 33.2292 71.9583C31.625 71.9583 30.3646 73.2188 30.3646 74.8229L30.3646 74.8229 30.3646 103.354 21.6562 103.354 21.6562 104.844C21.6562 106.448 22.9167 107.708 24.5208 107.708L85.5938 107.708C87.1979 107.708 88.4583 106.448 88.4583 104.844L88.4583 103.354 79.75 103.354 79.75 74.8229ZM49.0417 93.7292 47.4375 95.3333 41.0208 88.9167 47.4375 82.5 49.0417 84.1042 44.2292 88.9167 49.0417 93.7292ZM53.3958 96.1354 51.3333 95.2188 56.7188 82.2708 58.7812 83.1875 53.3958 96.1354ZM62.5625 95.4479 60.9583 93.8438 65.7708 89.0312 60.9583 84.2188 62.5625 82.6146 68.9792 89.0312 62.5625 95.4479Z"/></g></svg>