<svg width="110" height="110" xmlns="http://www.w3.org/2000/svg" xmlns:xlink="http://www.w3.org/1999/xlink" xml:space="preserve" overflow="hidden"><g><path d="M32.7708 92.3542 25.2083 75.2812 25.2083 63.7083C25.2347 62.3069 25.9676 61.0137 27.1563 60.2708 27.7779 59.9882 28.0525 59.2552 27.77 58.6336 27.7574 58.6059 27.7437 58.5788 27.7292 58.5521 27.5202 58.0577 26.9977 57.7727 26.4688 57.8646L13.4062 57.8646C12.6918 57.8207 12.0772 58.3642 12.0333 59.0786 12.0323 59.0941 12.0316 59.1095 12.0312 59.125 11.991 59.6442 12.2605 60.1381 12.7188 60.3854 13.944 61.0926 14.6897 62.4084 14.6667 63.8229L14.6667 75.3958 7.21875 92.3542C6.3327 94.2683 7.16609 96.5382 9.08017 97.4243 9.14635 97.4548 9.21342 97.4836 9.28125 97.5104 9.78307 97.745 10.3316 97.8624 10.8854 97.8542L29.2188 97.8542C31.3525 97.8719 33.0968 96.1566 33.1146 94.0227 33.1148 94.0013 33.1148 93.9798 33.1146 93.9583 33.1228 93.4044 33.0054 92.8559 32.7708 92.3542ZM22.5729 63.7083 22.5729 66.3438 17.4167 66.3438 17.4167 63.7083C17.4522 62.5337 17.1327 61.3756 16.5 60.3854L23.4896 60.3854C22.9081 61.3978 22.5926 62.541 22.5729 63.7083Z"/><path d="M86.2813 65.8614C82.6902 62.8123 77.7677 60.1883 70.8916 57.6377 73.3068 57.3752 75.6751 56.7858 77.9316 55.8857 77.9316 55.8857 75.3408 54.3354 73.7344 47.9898 72.7157 44.0034 76.6139 34.037 76.6471 27.021 76.6471 21.4065 75.0521 18.8936 72.0408 17.1886 70.3015 16.2021 66.2933 17.1107 66.2933 17.1107 66.2933 17.1107 64.2205 13.1863 57.2917 11.0264 51.5946 9.47501 45.5144 10.252 40.3906 13.1863 36.1052 15.9546 34.0335 19.0002 33.9339 29.4754 33.8456 39.0764 35.1633 47.6025 34.5549 51.6221 34.2741 53.8473 33.4275 55.9634 32.0959 57.7683 34.1998 57.9449 36.3126 57.9909 38.4221 57.9058 34.6176 59.2839 30.959 61.0357 27.5 63.1354L27.5 68.7122C31.0309 66.1229 34.9147 64.0532 39.0328 62.5659L36.8328 72.396C36.6253 73.3223 37.2078 74.2414 38.1341 74.449 38.2577 74.4767 38.3838 74.4906 38.5103 74.4906L42.6811 74.4906 40.4823 78.7302C40.0851 79.4962 40.3175 80.438 41.0254 80.9314L53.2927 89.4896 53.2927 96.2374C47.2785 96.1919 41.2731 95.7675 35.3123 94.9667 35.05 96.6971 34.0539 98.2302 32.5795 99.173 40.1068 100.377 47.721 100.954 55.3438 100.898 70.0104 100.898 84.5625 99 89.6042 95.2188L90.5208 94.5312 90.5208 74.4345C90.3959 71.1026 88.8532 67.983 86.2813 65.8614ZM63.0208 73.5625 65.8247 78.9766 58.0514 84.3964 65.1223 60.563 67.2994 61.6722 69.3974 71.0566 64.5505 71.0566C63.6013 71.0555 62.831 71.8243 62.8299 72.7735 62.8297 73.048 62.8951 73.3186 63.0208 73.5625ZM41.2603 37.8125 41.2603 32.0169C41.8191 31.9831 42.3754 31.9166 42.9264 31.8175 46.7705 31.3107 50.522 30.2549 54.0662 28.6825 58.0502 26.6796 60.335 25.6965 63.6407 22.7024 64.0774 22.2737 64.779 22.2803 65.2077 22.7169 65.37 22.8823 65.4764 23.0944 65.5119 23.3234 65.7754 25.1442 66.4606 29.1534 67.3727 30.753 67.784 31.5394 68.2479 32.297 68.7615 33.0206L68.7615 37.8125C68.7532 45.403 62.6019 51.5543 55.0115 51.5625L55.0115 51.5625C47.4205 51.5549 41.2686 45.4034 41.2603 37.8125ZM44.2292 78.9789 47.0376 73.5625C47.4743 72.7196 47.145 71.6824 46.3021 71.2457 46.0578 71.1191 45.7866 71.0531 45.5114 71.0531L40.661 71.0531 42.7602 61.6688 44.9373 60.5596 52.0082 84.3929ZM55.0286 82.5057 47.6438 57.6033C47.6279 57.5605 47.6099 57.5183 47.5899 57.4773 47.9433 56.7188 48.1259 55.8918 48.125 55.055L48.125 54.7972C52.5339 56.5978 57.4729 56.5978 61.8819 54.7972L61.8819 55.0516C61.8813 55.9104 62.0731 56.7585 62.4433 57.5334 62.4353 57.5564 62.4227 57.577 62.4158 57.5999ZM85.9375 92.1365C81.0964 94.7994 69.0938 96.1629 56.7256 96.2431L56.7256 89.5148 69.0261 80.9371C69.734 80.4437 69.9664 79.5019 69.5693 78.7359L67.3716 74.4964 71.5401 74.4964C72.4893 74.4976 73.2599 73.7291 73.2611 72.7799 73.2613 72.6515 73.2471 72.5236 73.2188 72.3983L71.0279 62.6026C75.4604 64.1726 79.6081 66.4528 83.309 69.3539 84.8811 70.6051 85.8387 72.4724 85.9375 74.4792Z"/><path d="M23.265 42.0521C23.265 43.1279 22.3929 44 21.3171 44 20.2413 44 19.3692 43.1279 19.3692 42.0521 19.3692 40.9763 20.2413 40.1042 21.3171 40.1042 22.3929 40.1042 23.265 40.9763 23.265 42.0521Z"/><path d="M22.6875 48.0104C22.6875 49.0862 23.5596 49.9583 24.6354 49.9583 25.7112 49.9583 26.5833 49.0862 26.5833 48.0104 26.5833 46.9346 25.7112 46.0625 24.6354 46.0625 23.5596 46.0625 22.6875 46.9346 22.6875 48.0104Z"/><path d="M17.4167 48.5833C18.4925 48.5833 19.3646 47.7112 19.3646 46.6354 19.3646 45.5596 18.4925 44.6875 17.4167 44.6875 16.3408 44.6875 15.4688 45.5596 15.4688 46.6354 15.4688 47.7112 16.3408 48.5833 17.4167 48.5833Z"/><path d="M16.0417 53.8542C16.0417 55.3097 17.2215 56.4896 18.6771 56.4896 20.1326 56.4896 21.3125 55.3097 21.3125 53.8542 21.3125 52.3986 20.1326 51.2188 18.6771 51.2188 17.2215 51.2188 16.0417 52.3986 16.0417 53.8542Z"/></g></svg>